<?xml version="1.0" encoding="UTF-8"?>
<svg id="Layer_1" xmlns="http://www.w3.org/2000/svg" version="1.1" viewBox="0 0 512 512">
  <!-- Generator: Adobe Illustrator 30.2.1, SVG Export Plug-In . SVG Version: 2.1.1 Build 1)  -->
  <defs>
    <style>
      .st0 {
        fill: #272420;
        stroke: #231f20;
        stroke-miterlimit: 10;
      }

      .st1 {
        fill: #e4d048;
      }

      .st2 {
        fill: #e8e6e0;
      }
    </style>
  </defs>
  <rect class="st0" width="512" height="512" rx="62.46" ry="62.46"/>
  <path class="st2" d="M217.12,423c-23.52,0-44.27-3.92-62.23-11.76-17.97-7.84-33-19.03-45.08-33.57-12.09-14.53-21.15-32.09-27.19-52.67-6.05-20.58-9.06-43.44-9.06-68.6,0-37.89,6.12-69.25,18.38-94.08,12.25-24.82,29.23-43.53,50.96-56.1,21.72-12.57,46.63-18.86,74.72-18.86,21.88,0,41.65,3.67,59.29,11.02,17.64,7.35,32.75,18.38,45.33,33.07,12.57,14.7,22.29,32.58,29.16,53.66,6.86,21.07,10.29,45,10.29,71.78s-3.19,48.43-9.56,68.85c-6.37,20.42-15.6,37.81-27.68,52.18-12.09,14.38-27.12,25.48-45.08,33.32-17.97,7.84-38.71,11.76-62.23,11.76ZM217.12,384.29c21.23,0,39.12-4.98,53.65-14.95,14.53-9.96,25.64-24.33,33.32-43.12,7.67-18.78,11.51-41.57,11.51-68.36s-3.92-51.45-11.76-71.05-19.11-34.54-33.81-44.83c-14.7-10.29-32.51-15.44-53.41-15.44s-37.16,5.07-51.7,15.19c-14.54,10.13-25.73,24.83-33.56,44.1-7.84,19.28-11.76,42.8-11.76,70.56,0,20.91,2.12,39.2,6.37,54.88,4.24,15.68,10.54,28.99,18.87,39.93,8.33,10.95,18.62,19.19,30.87,24.75,12.25,5.56,26.05,8.33,41.41,8.33Z"/>
  <rect class="st1" x="386.07" y="345.5" width="71.13" height="71.13" rx="14.96" ry="14.96"/>
</svg>